<svg width="62" height="62" viewBox="0 0 62 62" fill="none" xmlns="http://www.w3.org/2000/svg">
<path d="M31.0001 43.9168C31.732 43.9168 32.346 43.6688 32.842 43.1727C33.3363 42.6785 33.5834 42.0654 33.5834 41.3334V33.5834H41.398C42.1299 33.5834 42.7327 33.3354 43.2063 32.8394C43.6799 32.3451 43.9168 31.732 43.9168 31.0001C43.9168 30.2681 43.6688 29.6542 43.1727 29.1582C42.6785 28.6639 42.0654 28.4167 41.3334 28.4167H33.5834V20.6022C33.5834 19.8702 33.3363 19.2674 32.842 18.7938C32.346 18.3202 31.732 18.0834 31.0001 18.0834C30.2681 18.0834 29.655 18.3306 29.1607 18.8248C28.6647 19.3208 28.4167 19.9348 28.4167 20.6667V28.4167H20.6022C19.8702 28.4167 19.2674 28.6639 18.7938 29.1582C18.3202 29.6542 18.0834 30.2681 18.0834 31.0001C18.0834 31.732 18.3306 32.3451 18.8248 32.8394C19.3208 33.3354 19.9348 33.5834 20.6667 33.5834H28.4167V41.398C28.4167 42.1299 28.6647 42.7327 29.1607 43.2063C29.655 43.6799 30.2681 43.9168 31.0001 43.9168ZM31.0001 56.8334C27.4265 56.8334 24.0681 56.1549 20.9251 54.7978C17.782 53.4424 15.048 51.6022 12.723 49.2772C10.398 46.9522 8.5578 44.2181 7.20242 41.0751C5.8453 37.932 5.16675 34.5737 5.16675 31.0001C5.16675 27.4265 5.8453 24.0681 7.20242 20.9251C8.5578 17.782 10.398 15.048 12.723 12.723C15.048 10.398 17.782 8.55694 20.9251 7.19983C24.0681 5.84444 27.4265 5.16675 31.0001 5.16675C34.5737 5.16675 37.932 5.84444 41.0751 7.19983C44.2181 8.55694 46.9522 10.398 49.2772 12.723C51.6022 15.048 53.4424 17.782 54.7978 20.9251C56.1549 24.0681 56.8334 27.4265 56.8334 31.0001C56.8334 34.5737 56.1549 37.932 54.7978 41.0751C53.4424 44.2181 51.6022 46.9522 49.2772 49.2772C46.9522 51.6022 44.2181 53.4424 41.0751 54.7978C37.932 56.1549 34.5737 56.8334 31.0001 56.8334ZM31.0001 51.6668C36.7265 51.6668 41.6029 49.6543 45.6295 45.6295C49.6543 41.6029 51.6668 36.7265 51.6668 31.0001C51.6668 25.2737 49.6543 20.3972 45.6295 16.3707C41.6029 12.3458 36.7265 10.3334 31.0001 10.3334C25.2737 10.3334 20.3981 12.3458 16.3732 16.3707C12.3467 20.3972 10.3334 25.2737 10.3334 31.0001C10.3334 36.7265 12.3467 41.6029 16.3732 45.6295C20.3981 49.6543 25.2737 51.6668 31.0001 51.6668Z" fill="#D27C2C"/>
</svg>
