<svg width="37" height="38" viewBox="0 0 37 38" fill="none" xmlns="http://www.w3.org/2000/svg">
<path d="M10.7916 17.4167V20.5834H26.2083V17.4167H10.7916ZM18.4999 3.16675C9.98992 3.16675 3.08325 10.2601 3.08325 19.0001C3.08325 27.7401 9.98992 34.8334 18.4999 34.8334C27.0099 34.8334 33.9166 27.7401 33.9166 19.0001C33.9166 10.2601 27.0099 3.16675 18.4999 3.16675ZM18.4999 31.6667C11.7012 31.6667 6.16659 25.9826 6.16659 19.0001C6.16659 12.0176 11.7012 6.33341 18.4999 6.33341C25.2987 6.33341 30.8333 12.0176 30.8333 19.0001C30.8333 25.9826 25.2987 31.6667 18.4999 31.6667Z" fill="#D27C2C"/>
</svg>
