<svg width="38" height="35" viewBox="0 0 38 35" fill="none" xmlns="http://www.w3.org/2000/svg">
<path d="M30.5583 13.0157L23.8292 6.89071L26.0458 4.84904C26.6528 4.29001 27.3985 4.0105 28.2831 4.0105C29.1666 4.0105 29.9118 4.29001 30.5188 4.84904L32.7354 6.89071C33.3424 7.44973 33.659 8.12446 33.6854 8.91487C33.7118 9.70432 33.4215 10.3786 32.8146 10.9376L30.5583 13.0157ZM6.33333 30.6251C5.88472 30.6251 5.50894 30.4851 5.206 30.2051C4.902 29.9261 4.75 29.5799 4.75 29.1667V25.047C4.75 24.8525 4.78958 24.6644 4.86875 24.4826C4.94792 24.2998 5.06667 24.1355 5.225 23.9897L21.5333 8.96883L28.2625 15.1667L11.9542 30.1876C11.7958 30.3334 11.618 30.4428 11.4206 30.5157C11.2221 30.5886 11.0174 30.6251 10.8063 30.6251H6.33333Z" fill="#D27C2C"/>
</svg>
