<svg width="55" height="52" viewBox="0 0 55 52" fill="none" xmlns="http://www.w3.org/2000/svg">
<path d="M44.2292 19.3374L34.4896 10.2374L37.6979 7.20409C38.5764 6.37353 39.6558 5.95825 40.936 5.95825C42.2148 5.95825 43.2934 6.37353 44.1719 7.20409L47.3802 10.2374C48.2587 11.068 48.717 12.0704 48.7552 13.2448C48.7934 14.4176 48.3733 15.4194 47.4948 16.2499L44.2292 19.3374ZM9.16667 45.4999C8.51736 45.4999 7.97347 45.2919 7.535 44.8759C7.095 44.4614 6.875 43.9471 6.875 43.3333V37.2124C6.875 36.9235 6.93229 36.644 7.04688 36.3739C7.16146 36.1024 7.33333 35.8583 7.5625 35.6416L31.1667 13.3249L40.9063 22.5333L17.3021 44.8499C17.0729 45.0666 16.8155 45.2291 16.5298 45.3374C16.2426 45.4458 15.9462 45.4999 15.6406 45.4999H9.16667Z" fill="#D27C2C"/>
</svg>
