<svg width="75" height="71" viewBox="0 0 75 71" fill="none" xmlns="http://www.w3.org/2000/svg">
<path d="M67.5781 55.4687L35.7812 25.4416L34.375 14.7916H50V2.95825H56.25V14.7916H71.875L67.5781 55.4687ZM3.125 56.2083V50.2916H50V56.2083H3.125ZM3.125 68.0416V62.1249H50V68.0416H3.125ZM63.9844 68.9291L38.0469 44.3749H3.125C3.125 38.4089 5.56042 33.9596 10.4313 31.0269C15.3 28.0923 20.6771 26.6249 26.5625 26.6249C26.8229 26.6249 27.0958 26.6368 27.3813 26.6604C27.6687 26.6861 27.9688 26.6989 28.2812 26.6989L28.2031 35.0562L2.10938 10.3541L6.5625 6.13846L68.4375 64.7135L63.9844 68.9291Z" fill="#F8F8F8"/>
</svg>
