<svg width="80" height="103" viewBox="0 0 80 103" fill="none" xmlns="http://www.w3.org/2000/svg">
<path d="M30 34.3333C30.9445 34.3333 31.7367 33.9227 32.3767 33.1015C33.0145 32.2775 33.3334 31.2576 33.3334 30.0416V25.7499C33.3334 24.5339 33.0145 23.514 32.3767 22.69C31.7367 21.8688 30.9445 21.4583 30 21.4583C29.0556 21.4583 28.2645 21.8688 27.6267 22.69C26.9867 23.514 26.6667 24.5339 26.6667 25.7499V30.0416C26.6667 31.2576 26.9867 32.2775 27.6267 33.1015C28.2645 33.9227 29.0556 34.3333 30 34.3333ZM30 72.9583C30.9445 72.9583 31.7367 72.5463 32.3767 71.7223C33.0145 70.9011 33.3334 69.8826 33.3334 68.6666V55.7916C33.3334 54.5756 33.0145 53.5556 32.3767 52.7316C31.7367 51.9105 30.9445 51.4999 30 51.4999C29.0556 51.4999 28.2645 51.9105 27.6267 52.7316C26.9867 53.5556 26.6667 54.5756 26.6667 55.7916V68.6666C26.6667 69.8826 26.9867 70.9011 27.6267 71.7223C28.2645 72.5463 29.0556 72.9583 30 72.9583ZM20 94.4166C18.1667 94.4166 16.5978 93.5769 15.2934 91.8974C13.9867 90.215 13.3334 88.1937 13.3334 85.8333V47.2083H66.6667V85.8333C66.6667 88.1937 66.0145 90.215 64.71 91.8974C63.4034 93.5769 61.8334 94.4166 60 94.4166H20ZM13.3334 38.6249V17.1666C13.3334 14.8062 13.9867 12.7848 15.2934 11.1025C16.5978 9.42299 18.1667 8.58325 20 8.58325H60C61.8334 8.58325 63.4034 9.42299 64.71 11.1025C66.0145 12.7848 66.6667 14.8062 66.6667 17.1666V38.6249H13.3334Z" fill="#F8F8F8"/>
</svg>
