<svg width="77" height="90" viewBox="0 0 77 90" fill="none" xmlns="http://www.w3.org/2000/svg">
<path d="M35.2917 78.75H16.0417C14.2771 78.75 12.766 78.0163 11.5083 76.5488C10.2528 75.0788 9.625 73.3125 9.625 71.25V18.75C9.625 16.6875 10.2528 14.9212 11.5083 13.4513C12.766 11.9837 14.2771 11.25 16.0417 11.25H29.4365C30.0247 9.0625 31.1743 7.265 32.8854 5.8575C34.5965 4.4525 36.4681 3.75 38.5 3.75C40.6389 3.75 42.5511 4.4525 44.2365 5.8575C45.9198 7.265 47.0556 9.0625 47.6437 11.25H60.9583C62.7229 11.25 64.234 11.9837 65.4917 13.4513C66.7472 14.9212 67.375 16.6875 67.375 18.75V37.5H60.9583V18.75H54.5417V22.5C54.5417 24.5625 53.9139 26.3275 52.6584 27.795C51.4007 29.265 49.8896 30 48.125 30H28.875C27.1104 30 25.6004 29.265 24.3448 27.795C23.0872 26.3275 22.4583 24.5625 22.4583 22.5V18.75H16.0417V71.25H35.2917V78.75ZM49.7292 64.2188L65.6104 45.6562C66.1986 44.9688 66.9472 44.625 67.8562 44.625C68.7653 44.625 69.5139 44.9688 70.1021 45.6562C70.6903 46.3438 70.9844 47.2188 70.9844 48.2812C70.9844 49.3438 70.6903 50.2188 70.1021 50.9062L51.975 72.0938C51.3333 72.8438 50.5847 73.2188 49.7292 73.2188C48.8736 73.2188 48.125 72.8438 47.4833 72.0938L38.3396 61.4062C37.7514 60.7188 37.4573 59.8438 37.4573 58.7812C37.4573 57.7188 37.7514 56.8438 38.3396 56.1562C38.9278 55.4688 39.6764 55.125 40.5854 55.125C41.4944 55.125 42.2431 55.4688 42.8312 56.1562L49.7292 64.2188ZM38.5 18.75C39.409 18.75 40.1715 18.39 40.7875 17.67C41.4014 16.9525 41.7083 16.0625 41.7083 15C41.7083 13.9375 41.4014 13.0462 40.7875 12.3263C40.1715 11.6087 39.409 11.25 38.5 11.25C37.591 11.25 36.8295 11.6087 36.2157 12.3263C35.5997 13.0462 35.2917 13.9375 35.2917 15C35.2917 16.0625 35.5997 16.9525 36.2157 17.67C36.8295 18.39 37.591 18.75 38.5 18.75Z" fill="#F8F8F8"/>
</svg>
