<svg width="83" height="79" viewBox="0 0 83 79" fill="none" xmlns="http://www.w3.org/2000/svg">
<path d="M51.9619 25.3948C51.9619 31.0198 47.1647 35.5784 41.2497 35.5784C35.3411 35.5784 30.5518 31.0186 30.5518 25.3948C30.5518 19.771 35.3411 15.2112 41.2497 15.2112C47.1647 15.2112 51.9619 19.771 51.9619 25.3948Z" fill="#F8F8F8"/>
<path d="M41.2666 0.646729C36.3151 0.646729 29.3989 2.52545 24.389 7.29384L30.3391 17.612C31.6393 16.0371 33.2987 14.7642 35.1918 13.8896C37.0849 13.0149 39.1622 12.5614 41.2666 12.5634C45.7525 12.5634 49.7442 14.5804 52.2874 17.7169L58.1234 7.05684C53.7879 2.54767 46.0131 0.647963 41.2666 0.647963V0.646729ZM45.6759 8.22332H42.9058V10.8575H39.578V8.22332H36.8079V5.05715H39.578V2.41188H42.9058V5.05715H45.6759V8.22332ZM27.1903 53.8816H29.9306L26.0166 66.65H56.5982L52.7024 53.8816H55.4453L59.3658 66.65H68.3648L62.2228 47.3049C61.2631 44.1115 57.056 38.489 49.7961 38.3186L33.1053 38.305C25.6807 38.3396 21.3855 44.072 20.4141 47.3036L14.1528 66.6488H23.2789L27.1903 53.8816ZM1.22815 70.721H81.2842V77.9705H1.22815V70.721Z" fill="#F8F8F8"/>
</svg>
